<svg width="111" height="111" viewBox="0 0 111 111" fill="none" xmlns="http://www.w3.org/2000/svg">
<mask id="mask0" mask-type="alpha" maskUnits="userSpaceOnUse" x="0" y="0" width="111" height="111">
<circle cx="55.5" cy="55.5" r="55" fill="#C4C4C4" stroke="black"/>
</mask>
<g mask="url(#mask0)">
<rect width="111" height="111" fill="#1A55AF"/>
<path d="M-9.43132 18.207L53.6205 86.5765C58.3473 91.7019 54.7119 100 47.7396 100H-52.5356C-58.6053 100 -62.4641 93.5055 -59.5618 88.1747L-22.3384 19.8052C-19.7185 14.9931 -13.1458 14.1793 -9.43132 18.207Z" fill="#3BF3FF"/>
<path d="M137.053 115.994L58.6784 30.4629C53.968 25.3224 57.6299 17.036 64.6021 17.0582L189.68 17.4576C195.749 17.4769 199.587 23.9837 196.668 29.3053L149.966 114.437C147.33 119.241 140.755 120.034 137.053 115.994Z" fill="#3BF3FF"/>
</g>
</svg>
