<svg width="44" height="38" viewBox="0 0 44 38" fill="none" xmlns="http://www.w3.org/2000/svg">
<path d="M44 32.5V15C44 12.2386 41.7614 10 39 10H11.5C8.73858 10 6.5 12.2386 6.5 15V32.5C6.5 35.2614 8.73858 37.5 11.5 37.5H39C41.7614 37.5 44 35.2614 44 32.5Z" fill="#E9EAEC"/>
<path d="M39.5 24.5V5.5C39.5 2.73858 37.2614 0.5 34.5 0.5H5.5C2.73858 0.5 0.5 2.73858 0.5 5.5V24.5C0.5 27.2614 2.73858 29.5 5.5 29.5H34.5C37.2614 29.5 39.5 27.2614 39.5 24.5Z" fill="#A5AAB5"/>
<path d="M10.5 7.5H28C29.1046 7.5 30 8.39543 30 9.5C30 10.6046 29.1046 11.5 28 11.5H10.5C9.39543 11.5 8.5 10.6046 8.5 9.5C8.5 8.39543 9.39543 7.5 10.5 7.5Z" fill="#FEFEFE"/>
</svg>
