<svg width="101" height="103" viewBox="0 0 101 103" fill="none" xmlns="http://www.w3.org/2000/svg">
<mask id="mask0" mask-type="alpha" maskUnits="userSpaceOnUse" x="0" y="0" width="101" height="103">
<path d="M46 13V11.625C46 6.30926 41.6907 2 36.375 2C35.6156 2 35 2.61561 35 3.375V13C35 19.0751 30.0751 24 24 24H13C6.92487 24 2 28.9249 2 35C2 41.0751 6.92487 46 13 46H26.75C31.3063 46 35 49.6936 35 54.25C35 58.8064 31.3063 62.5 26.75 62.5H13.3438C7.07877 62.5 2 67.5788 2 73.8438C2 80.1087 7.07877 85.1875 13.3438 85.1875H27.0938C31.4603 85.1875 35 88.7272 35 93.0938V95.5C35 98.5376 37.4624 101 40.5 101C43.5376 101 46 98.5376 46 95.5V93.0938C46 88.7272 49.5397 85.1875 53.9062 85.1875H66.2812C72.5462 85.1875 77.625 80.1087 77.625 73.8438C77.625 67.5788 72.5462 62.5 66.2812 62.5H54.25C49.6936 62.5 46 58.8064 46 54.25C46 49.6936 49.6936 46 54.25 46H88.625C94.7001 46 99.625 41.0751 99.625 35C99.625 28.9249 94.7001 24 88.625 24H57C50.9249 24 46 19.0751 46 13Z" fill="#5843BE" stroke="#402BA8" stroke-width="2.75"/>
</mask>
<g mask="url(#mask0)">
<rect opacity="0.3" x="15.4531" y="-44.2432" width="129.28" height="150.89" transform="rotate(34.7206 15.4531 -44.2432)" fill="#F4C10B"/>
<rect opacity="0.58" x="41.8926" y="-6.09131" width="80.4375" height="84.2452" transform="rotate(34.7206 41.8926 -6.09131)" fill="#FCA96C"/>
<rect opacity="0.81" x="63.3105" y="-3.23486" width="80.4375" height="84.2452" transform="rotate(34.7206 63.3105 -3.23486)" fill="#5843BE"/>
</g>
</svg>
