<svg width="39" height="38" viewBox="0 0 39 38" fill="none" xmlns="http://www.w3.org/2000/svg">
<path d="M36.778 36.2031L28.6214 27.6919C28.0121 27.0561 28.4627 26 29.3434 26H37.5C38.0523 26 38.5 26.4477 38.5 27V35.5112C38.5 36.4124 37.4016 36.8538 36.778 36.2031Z" fill="#A5AAB5" stroke="#A5AAB5"/>
<path d="M34 0H5C2.23858 0 0 2.23858 0 5V26.5C0 29.2614 2.23858 31.5 5 31.5H34C36.7614 31.5 39 29.2614 39 26.5V5C39 2.23858 36.7614 0 34 0Z" fill="#A5AAB5"/>
<path d="M25.25 11H11.25C10.2835 11 9.5 10.2165 9.5 9.25C9.5 8.2835 10.2835 7.5 11.25 7.5H25.25C26.2165 7.5 27 8.2835 27 9.25C27 10.2165 26.2165 11 25.25 11Z" fill="#FDFDFD"/>
<path d="M17.5 19H11.5C10.3954 19 9.5 18.1046 9.5 17C9.5 15.8954 10.3954 15 11.5 15H17.5C18.6046 15 19.5 15.8954 19.5 17C19.5 18.1046 18.6046 19 17.5 19Z" fill="#FDFDFD"/>
</svg>
