<svg width="53" height="53" viewBox="0 0 53 53" fill="none" xmlns="http://www.w3.org/2000/svg">
<path d="M42.2156 10.7844L39.1312 13.8688C42.2812 17.0406 44.25 21.4156 44.25 26.25C44.25 35.9188 36.4188 43.75 26.75 43.75C17.0812 43.75 9.25 35.9188 9.25 26.25C9.25 17.325 15.9219 9.975 24.5625 8.90313V13.3219C18.35 14.3719 13.625 19.7531 13.625 26.25C13.625 33.4906 19.5094 39.375 26.75 39.375C33.9906 39.375 39.875 33.4906 39.875 26.25C39.875 22.6188 38.4094 19.3375 36.025 16.975L32.9406 20.0594C34.5156 21.6563 35.5 23.8437 35.5 26.25C35.5 31.0844 31.5844 35 26.75 35C21.9156 35 18 31.0844 18 26.25C18 22.1812 20.8 18.7906 24.5625 17.8063V22.4875C23.25 23.2531 22.375 24.6312 22.375 26.25C22.375 28.6563 24.3437 30.625 26.75 30.625C29.1563 30.625 31.125 28.6563 31.125 26.25C31.125 24.6312 30.25 23.2312 28.9375 22.4875V4.375H26.75C14.675 4.375 4.875 14.175 4.875 26.25C4.875 38.325 14.675 48.125 26.75 48.125C38.825 48.125 48.625 38.325 48.625 26.25C48.625 20.2125 46.175 14.7437 42.2156 10.7844Z" fill="#A5AAB5"/>
</svg>
