<svg width="36" height="36" viewBox="0 0 36 36" fill="none" xmlns="http://www.w3.org/2000/svg">
<path d="M16 4V3.5C16 1.567 14.433 0 12.5 0C12.2239 0 12 0.223858 12 0.5V4C12 6.20914 10.2091 8 8 8H4C1.79086 8 0 9.79086 0 12C0 14.2091 1.79086 16 4 16H9C10.6569 16 12 17.3431 12 19C12 20.6569 10.6569 22 9 22H4.125C1.84683 22 0 23.8468 0 26.125C0 28.4032 1.84683 30.25 4.125 30.25H9.125C10.7128 30.25 12 31.5372 12 33.125V34C12 35.1046 12.8954 36 14 36C15.1046 36 16 35.1046 16 34V33.125C16 31.5372 17.2872 30.25 18.875 30.25H23.375C25.6532 30.25 27.5 28.4032 27.5 26.125C27.5 23.8468 25.6532 22 23.375 22H19C17.3431 22 16 20.6569 16 19C16 17.3431 17.3431 16 19 16H31.5C33.7091 16 35.5 14.2091 35.5 12C35.5 9.79086 33.7091 8 31.5 8H20C17.7909 8 16 6.20914 16 4Z" fill="#A5AAB5"/>
</svg>
